<svg width="1440" height="859" viewBox="0 0 1440 859" fill="none" xmlns="http://www.w3.org/2000/svg">
<g clip-path="url(#clip0_334_1572)">
<rect width="1440" height="859" fill="white"/>
<rect width="1450" height="517" fill="url(#paint0_linear_334_1572)"/>
<ellipse cx="-0.479065" cy="275.75" rx="71.394" ry="33.75" fill="white"/>
<ellipse cx="86.278" cy="280.028" rx="43.3786" ry="20.9155" fill="white"/>
<ellipse cx="76.4755" cy="289.035" rx="20.81" ry="4.77922" fill="white"/>
<ellipse cx="120.408" cy="287.973" rx="36.5331" ry="7.54054" fill="white"/>
<ellipse cx="164.802" cy="288.929" rx="22.1973" ry="4.67301" fill="white"/>
<ellipse rx="40.6675" ry="37.2359" transform="matrix(-1 0 0 1 1407.33 347.025)" fill="white"/>
<ellipse rx="71.394" ry="58.75" transform="matrix(-1 0 0 1 1321.48 338.75)" fill="white"/>
<ellipse rx="43.3786" ry="36.4085" transform="matrix(-1 0 0 1 1234.72 346.197)" fill="white"/>
<ellipse rx="20.81" ry="13.6753" transform="matrix(-1 0 0 1 1240.52 370.616)" fill="white"/>
<ellipse rx="36.5331" ry="21.5766" transform="matrix(-1 0 0 1 1196.59 367.577)" fill="white"/>
<ellipse rx="22.1973" ry="13.3714" transform="matrix(-1 0 0 1 1152.2 370.312)" fill="white"/>
<ellipse rx="36.5331" ry="21.5766" transform="matrix(-1 0 0 1 1425.59 374.577)" fill="white"/>
<ellipse rx="22.1973" ry="13.3714" transform="matrix(-1 0 0 1 1381.2 377.312)" fill="white"/>
<ellipse cx="-54.0599" cy="77.0492" rx="87.9401" ry="74.4718" fill="white"/>
<ellipse cx="143.5" cy="56.5" rx="154.5" ry="117.5" fill="white"/>
<ellipse cx="310" cy="82.5" rx="85" ry="65.5" fill="white"/>
<ellipse cx="298" cy="106.752" rx="45" ry="16.6388" fill="white"/>
<ellipse cx="395" cy="103.252" rx="79" ry="26.2523" fill="white"/>
<ellipse cx="246" cy="129.252" rx="79" ry="26.2523" fill="white"/>
<ellipse cx="-4" cy="140.252" rx="79" ry="26.2523" fill="white"/>
<ellipse cx="489" cy="106.382" rx="48" ry="16.269" fill="white"/>
<rect x="-18" y="635" width="1498" height="603" fill="#FFE1C0"/>
<path d="M769.83 815.92C777.358 815.92 783.46 814.241 783.46 812.17C783.46 810.099 777.358 808.42 769.83 808.42C762.303 808.42 756.2 810.099 756.2 812.17C756.2 814.241 762.303 815.92 769.83 815.92Z" fill="#FAF7F0"/>
<path d="M536.83 804.66C540.591 804.66 543.64 803.818 543.64 802.78C543.64 801.742 540.591 800.9 536.83 800.9C533.069 800.9 530.02 801.742 530.02 802.78C530.02 803.818 533.069 804.66 536.83 804.66Z" fill="#FAF7F0"/>
<path d="M505.37 810.29C511.058 810.29 515.67 809.448 515.67 808.41C515.67 807.372 511.058 806.53 505.37 806.53C499.681 806.53 495.07 807.372 495.07 808.41C495.07 809.448 499.681 810.29 505.37 810.29Z" fill="#FAF7F0"/>
<path d="M377.81 762.76C381.571 762.76 384.62 761.918 384.62 760.88C384.62 759.842 381.571 759 377.81 759C374.049 759 371 759.842 371 760.88C371 761.918 374.049 762.76 377.81 762.76Z" fill="#FAF7F0"/>
<path opacity="0.45" d="M1720.97 635H-111V657.813C-78.6944 657.139 -46.3129 657.512 -13.6528 659.331C24.9062 661.474 63.2248 665.273 100.898 670.721C110.734 672.141 121.861 674.35 125.671 680.057C136.634 696.48 75.4407 704.785 83.1753 721.875C89.9858 736.934 142.862 730.318 160.711 730.561C198.561 731.073 236.386 732.299 274.123 734.231C277.009 734.377 280.338 734.693 281.781 736.228C282.832 737.34 282.49 738.753 281.731 739.946C275.566 749.566 250.729 748.008 239.69 755.85C229.753 762.905 236.399 774.676 249.058 779.872C277.439 791.506 324.062 786.18 355.722 785.108C397.522 783.696 404.345 784.102 446.145 782.689C457.095 782.316 470.842 782.949 474.982 789.143C479.995 796.62 454.398 810.503 450.715 819.019C449.993 820.691 449.423 822.477 450.297 824.125C451.411 826.244 454.677 827.665 457.943 828.655C476.336 834.257 498.299 830.92 518.161 827.673C538.023 824.426 595.356 819.709 613.129 826.009C624.623 830.076 631.965 837.285 641.181 843.122C666.461 859.14 720.869 864.327 751.719 852.686C759.795 849.633 766.732 845.55 774.859 842.546C810.734 829.297 864.32 838.6 892.701 819.766C894.967 818.264 897.056 816.518 897.461 814.497C898.625 808.814 887.207 805.51 882.663 800.509C878.131 795.524 881.194 788.948 887.65 784.824C894.106 780.7 903.221 778.557 912.196 776.982C943.172 771.535 971.693 774.774 1002.85 773.921C1036.24 773.004 1069.94 770.877 1103.37 770.877C1117.3 770.455 1134.4 768.644 1138.75 760.567C1142.96 752.749 1131.84 743.591 1138.23 736.35C1141.36 732.794 1147.87 730.902 1154.13 729.595C1190.36 722.029 1229.91 726.413 1268.2 726.705C1306.5 726.997 1349.94 721.046 1369.07 700.816C1374.34 695.246 1377.44 688.857 1384.34 683.994C1401.49 671.914 1432.57 674.342 1458.44 676.899C1513.23 682.322 1569.11 683.605 1624.41 680.706C1656.43 679.026 1689.37 675.705 1716.27 664.981C1717.87 664.34 1719.46 663.666 1721 662.96V635H1720.97Z" fill="#FFCBA3"/>
<path d="M245.671 683.414L179.579 676.362H157.549L-4.37549 667.9V517H1582.92V693.286H1556.48H1477.17L1309.74 683.414L1218.32 698.221L1165.44 728.543H1056.39L989.199 760.274L925.311 763.8H857.017L825.072 778.608L781.011 799.057L703.905 820.916L626.798 799.057H556.3V774.377L544.184 767.325H475.889L372.346 774.377V760.274L397.681 747.581L384.463 739.12L344.808 728.543H221.437V715.85L272.107 703.863L257.787 693.286L245.671 683.414Z" fill="#2CDDFB"/>
<path d="M245.671 683.414L179.579 676.362H157.549L-4.37549 667.9V517H1582.92V693.286H1556.48H1477.17L1309.74 683.414L1218.32 698.221L1165.44 728.543H1056.39L989.199 760.274L925.311 763.8H857.017L825.072 778.608L781.011 799.057L703.905 820.916L626.798 799.057H556.3V774.377L544.184 767.325H475.889L372.346 774.377V760.274L397.681 747.581L384.463 739.12L344.808 728.543H221.437V715.85L272.107 703.863L257.787 693.286L245.671 683.414Z" fill="url(#paint1_linear_334_1572)"/>
<path d="M1596.8 669.191C1532.69 696.353 1448.27 684.471 1372.19 677.392C1297.99 670.488 1222.51 669.198 1147.84 673.556C1119.16 675.227 1084.22 681.27 1078.21 699.3C1075.9 706.267 1077.94 714.87 1069.17 719.256C1061.51 723.064 1050.27 720.645 1041.46 720.645C1031.17 720.645 1020.88 721.632 1011.04 723.557C1004.4 724.862 999.609 727.555 1003.88 731.843C1006.63 734.6 1011.75 736.962 1008.23 740.502C1007.09 741.651 1005.26 742.455 1003.36 743.083C994.85 745.868 983.769 746.827 974.428 747.99C963.291 749.38 952.012 750.324 940.666 750.578C879.675 751.967 809.111 745.198 766.13 772.938C754.09 780.709 744.11 791.23 727.422 793.599C692.801 798.528 661.815 768.707 628.814 777.014C624.573 778.086 620.123 779.172 615.584 778.897C609.383 778.516 605.186 775.547 606.53 771.599C607.136 769.815 608.149 767.932 607.136 766.225C606.21 764.674 603.82 763.694 601.485 762.961C587.914 758.709 570.818 757.439 555.992 756.29C540.031 755.056 523.937 754.675 507.877 754.788C495.926 754.873 483.974 755.232 472.045 755.733C463.585 756.085 455.202 756.932 446.82 757.75C439.825 758.434 432.676 759.35 425.792 757.799C424.657 757.545 423.379 757.094 423.28 756.325C423.225 755.881 423.6 755.465 423.985 755.091C426.926 752.299 439.814 747.969 431.927 744.472C426.464 742.046 418.676 741.771 412.408 740.692C405.413 739.486 396.656 736.341 397.042 730.975C397.185 729.008 398.595 727.048 397.857 725.137C395.61 719.376 379.715 717.768 372.28 717.437C361.672 716.964 351.119 718.036 340.545 718.396C319.99 719.087 299.193 719.637 278.848 717.225C276.976 717.006 274.751 716.541 274.376 715.349C274.09 714.397 275.191 713.523 276.271 712.839C288.883 704.8 308.457 704.582 317.611 694.16C324.209 686.65 324.143 675.981 313.778 670.474C308.678 667.766 301.991 666.702 295.536 665.771C226.978 655.878 155.973 652.951 85.9494 656.921C50.3151 658.945 15.6391 666.138 -19.5546 668.309C-20.3808 668.359 -21.1849 668.401 -22 668.443C-20.2486 670.848 -17.8913 673.02 -14.6638 674.691C-7.95557 678.174 -0.652462 679.197 4.59079 674.797C77.4346 669.861 151.413 666.377 223.618 674.261C239.513 675.995 256.443 678.717 266.875 686.587C277.306 694.456 276.326 708.968 261.433 712.938C251.244 715.66 234.523 715.081 234.424 722.147C234.347 727.711 244.271 729.121 251.211 729.29C262.105 729.558 273.186 729.586 284.125 729.332C300.603 728.952 317.027 727.795 333.242 725.87C340.776 724.982 348.288 723.987 355.614 722.57C362.663 721.209 370.859 719.446 378.019 721.512C378.988 721.794 379.968 722.196 380.343 722.838C380.883 723.769 379.924 724.763 378.955 725.546C376.135 727.809 372.258 728.811 369.361 730.714C365.715 733.105 368.777 735.813 373.139 736.701C383.757 738.859 421.044 737.914 405.281 750.606C398.727 755.881 383.052 755.557 380.177 762.946C378.415 767.699 385.465 772.276 392.966 773.178C400.468 774.081 408.068 772.424 415.36 770.971C460.016 762.086 511.435 757.771 557.512 763.905C561.004 764.371 564.595 764.893 567.514 766.204C570.433 767.516 572.537 769.843 571.744 772.071C568.88 780.124 546.287 781.52 568.593 787.951C590.403 794.241 609.548 790.038 631.655 788.028C638.507 787.401 643.86 787.274 648.729 790.849C654.512 795.101 648.41 802.738 658.345 803.873C661.474 804.233 664.635 804.458 667.807 804.55C673.117 804.712 679.252 804.733 682.59 807.392C683.592 808.188 684.209 809.147 685.079 810.001C688.417 813.287 695.103 814.647 701.206 814.344C724.668 813.202 739.88 801.334 763.034 798.338C777.123 796.518 781.419 797.527 786.574 788.339C793.745 775.533 814.784 767.826 835.647 765.288C856.521 762.749 878 764.265 899.238 763.927C933.209 763.391 969.768 759.061 1001.99 752.235C1006.12 751.361 1010.33 750.388 1013.62 748.562C1016.91 746.735 1019.12 743.851 1018.07 741.151C1017.14 738.732 1013.8 736.708 1014.03 734.219C1014.39 730.164 1022.91 729.107 1029.26 729.234C1046.11 729.572 1063.46 730.7 1080.24 729.784C1109.77 728.169 1140.56 727.224 1169.05 721.964C1176.15 720.652 1184.35 718.283 1185.34 713.594C1186.65 707.346 1173.81 702.445 1175.62 696.247C1176.73 692.404 1182.98 690.211 1188.63 688.744C1248.73 673.161 1317.91 683.498 1380 688.208C1451.08 693.603 1526.27 696.318 1591.13 676.926C1595.65 675.572 1600.32 673.986 1602.92 671.257C1604.73 669.353 1605.25 667.266 1604.9 665.136C1602.43 666.645 1599.64 667.985 1596.84 669.17L1596.8 669.191Z" fill="#24CAEF"/>
<path d="M1499.14 691.135C1482.36 694.668 1464.03 696.134 1446.07 697.009C1401.63 699.166 1356.72 698.214 1312.7 694.174C1291.91 692.27 1266.93 690.458 1253.15 699.456C1247.61 703.08 1245.11 707.847 1240.88 711.993C1225.5 727.069 1190.59 731.504 1159.81 731.286C1129.05 731.067 1097.27 727.802 1068.15 733.443C1063.12 734.416 1057.89 735.827 1055.37 738.471C1050.25 743.872 1059.18 750.691 1055.8 756.516C1052.29 762.538 1038.56 763.884 1027.37 764.195C1000.5 764.195 973.426 765.781 946.581 766.465C921.555 767.107 898.632 764.688 873.738 768.75C866.523 769.927 859.198 771.521 854.009 774.595C848.821 777.67 846.365 782.564 850 786.28C853.657 790.01 862.833 792.471 861.896 796.709C861.566 798.218 859.892 799.515 858.074 800.636C835.261 814.662 792.192 807.73 763.365 817.602C756.833 819.844 751.259 822.884 744.771 825.161C719.976 833.834 676.256 829.97 655.944 818.032C648.531 813.681 642.638 808.315 633.407 805.283C619.12 800.587 601.143 802.738 585.182 805.163C569.232 807.582 551.575 810.071 536.792 805.897C534.171 805.156 531.56 804.099 530.657 802.519C529.963 801.292 530.415 799.959 530.998 798.718C533.951 792.372 554.516 782.028 550.495 776.457C547.158 771.845 536.12 771.373 527.319 771.648C493.734 772.706 472.607 775.294 439.021 776.351C413.576 777.148 378.845 784.305 356.032 775.632C345.854 771.768 340.523 762.996 348.498 757.736C357.365 751.897 374.604 749.866 379.561 742.702C380.178 741.806 380.453 740.756 379.605 739.931C378.437 738.788 375.761 738.556 373.447 738.443C364.624 738.027 356.451 738.401 347.947 736.687C346.945 736.49 345.92 736.264 345.094 735.834C342.693 734.572 344.521 733.866 345.006 732.52C345.359 731.554 344.477 730.538 343.211 729.967C341.944 729.389 340.369 729.177 338.837 729.043C331.689 728.395 324.43 729.043 317.292 729.706C309.702 730.418 302.124 731.138 294.545 731.885C277.053 733.598 259.902 734.804 242.19 735.065C231.957 735.22 211.479 735.784 207.536 727.704C201.323 714.969 250.495 708.777 241.683 696.543C238.632 692.291 229.687 690.641 221.779 689.584C191.509 685.529 160.71 682.701 129.724 681.101C85.3768 678.816 41.7013 679.563 -2.17236 682.046L4.63506 674.501C77.4789 669.565 151.457 666.081 223.662 673.965C239.557 675.699 256.488 678.421 266.919 686.291C277.35 694.16 276.37 708.672 261.488 712.642C251.288 715.356 234.578 714.778 234.468 721.851C234.391 727.414 244.327 728.825 251.266 728.994C262.16 729.262 273.242 729.29 284.18 729.036C300.648 728.648 317.082 727.492 333.297 725.574C340.82 724.685 348.344 723.691 355.658 722.274C362.719 720.913 370.903 719.15 378.063 721.216C379.032 721.498 380.012 721.9 380.387 722.542C380.916 723.48 379.968 724.474 378.999 725.25C376.179 727.513 372.302 728.514 369.405 730.418C365.748 732.816 368.821 735.516 373.183 736.405C383.802 738.563 421.088 737.618 405.326 750.31C398.771 755.585 383.097 755.26 380.222 762.65C378.448 767.403 385.498 771.979 392.999 772.882C400.512 773.785 408.112 772.127 415.404 770.675C460.06 761.79 511.479 757.482 557.556 763.616C561.048 764.082 564.639 764.597 567.558 765.915C570.477 767.227 572.581 769.547 571.799 771.775C568.935 779.828 546.343 781.224 568.649 787.655C590.459 793.945 609.592 789.749 631.7 787.732C638.551 787.105 643.905 786.978 648.773 790.553C654.567 794.798 648.454 802.441 658.39 803.57C661.518 803.929 664.679 804.155 667.852 804.254C673.161 804.416 679.297 804.437 682.623 807.088C683.626 807.885 684.242 808.844 685.113 809.704C688.45 812.99 695.137 814.344 701.239 814.048C724.701 812.899 739.914 801.038 763.068 798.041C777.156 796.215 781.463 797.231 786.607 788.043C793.767 775.237 814.806 767.53 835.68 764.991C856.554 762.446 878.034 763.969 899.271 763.63C933.242 763.095 969.802 758.765 1002.02 751.939C1006.15 751.065 1010.37 750.092 1013.65 748.265C1016.94 746.439 1019.15 743.555 1018.1 740.854C1017.18 738.429 1013.83 736.412 1014.06 733.923C1014.42 729.868 1022.94 728.811 1029.28 728.938C1046.15 729.276 1063.49 730.411 1080.26 729.495C1109.79 727.88 1140.58 726.928 1169.07 721.675C1176.16 720.363 1184.37 717.994 1185.35 713.305C1186.67 707.057 1173.83 702.149 1175.63 695.958C1176.74 692.115 1182.99 689.922 1188.64 688.455C1248.74 672.872 1317.92 683.209 1380.01 687.919C1419.28 690.902 1459.8 693.06 1499.14 691.135Z" fill="white"/>
<path d="M-36 516.811C-18.32 510.051 1.09998 507.861 19.83 510.621C22.91 511.071 26.01 511.661 29.11 511.401C34.14 510.971 38.75 508.361 43.73 507.531C56.12 505.481 69.39 514.601 80.82 509.381C84.29 507.791 87.38 504.921 91.2 504.801C96.73 504.611 100.75 510.151 106.1 511.581C114.65 513.871 122.46 505.181 131.31 504.831C137.75 504.581 143.31 508.701 149.65 509.101C154.78 509.421 160.15 508.001 165.37 508.001C178.67 508.011 184.87 500.541 196.09 494.591C203.06 490.891 211.49 490.001 219.1 492.151C229.82 495.191 236.37 499.671 247.66 498.481C256.08 497.601 260.99 500.381 266.58 507.341C269.15 510.541 272.51 513.651 275.73 516.801H-36V516.811Z" fill="#3FD4F5"/>
<path d="M234.65 516.97C226.49 515.4 218.14 514.8 209.83 515.22C206.94 515.37 203.91 515.61 201.28 514.39C200.34 513.96 199.48 513.35 198.48 513.08C196.26 512.49 194.02 513.74 191.76 514.17C184.87 515.5 177.85 509.23 171.21 511.5C169.11 512.22 167.36 513.73 165.25 514.44C160.9 515.9 156.29 513.67 151.76 512.91C145.25 511.82 138.81 513.88 132.94 516.54C132.64 516.68 132.32 516.82 132 516.98H234.65V516.97Z" fill="#009ADC"/>
<path d="M1125 516.811C1142.68 510.051 1162.1 507.861 1180.83 510.621C1183.91 511.071 1187.01 511.661 1190.11 511.401C1195.14 510.971 1199.75 508.361 1204.73 507.531C1217.12 505.481 1230.39 514.601 1241.82 509.381C1245.29 507.791 1248.38 504.921 1252.2 504.801C1257.73 504.611 1261.75 510.151 1267.1 511.581C1275.65 513.871 1283.46 505.181 1292.31 504.831C1298.75 504.581 1304.31 508.701 1310.65 509.101C1315.78 509.421 1321.15 508.001 1326.37 508.001C1339.67 508.011 1345.87 500.541 1357.09 494.591C1364.06 490.891 1372.49 490.001 1380.1 492.151C1390.82 495.191 1397.37 499.671 1408.66 498.481C1417.08 497.601 1421.99 500.381 1427.58 507.341C1430.15 510.541 1433.51 513.651 1436.73 516.801H1125V516.811Z" fill="#3FD4F5"/>
<path d="M1422.64 516.811C1414.48 515.241 1406.13 514.641 1397.82 515.061C1394.93 515.211 1391.9 515.451 1389.27 514.231C1388.33 513.801 1387.47 513.191 1386.47 512.921C1384.25 512.331 1382.01 513.581 1379.75 514.011C1372.86 515.341 1365.84 509.071 1359.2 511.341C1357.1 512.061 1355.35 513.571 1353.24 514.281C1348.89 515.741 1344.28 513.511 1339.75 512.751C1333.24 511.661 1326.8 513.721 1320.93 516.381C1320.63 516.521 1320.31 516.661 1319.99 516.821H1422.64V516.811Z" fill="#009ADC"/>
<path opacity="0.3" d="M1391 549.457C1375.77 553.902 1359.13 555.747 1342.82 556.847C1302.48 559.562 1261.7 558.364 1221.73 553.281C1202.86 550.885 1180.18 548.605 1167.67 559.925C1162.64 564.486 1160.37 570.483 1156.53 575.699C1142.57 594.667 1110.88 600.247 1082.94 599.972C1055.01 599.697 1026.15 595.59 999.713 602.687C995.153 603.911 990.402 605.686 988.112 609.013C983.462 615.808 991.573 624.387 988.502 631.715C985.322 639.292 972.852 640.986 962.691 641.377C938.3 641.377 913.719 643.373 889.348 644.233C866.627 645.041 845.816 641.998 823.215 647.108C816.665 648.589 810.015 650.594 805.304 654.462C800.594 658.33 798.364 664.487 801.664 669.163C804.984 673.856 813.315 676.952 812.465 682.284C812.165 684.183 810.645 685.815 808.994 687.226C788.284 704.871 749.182 696.15 723.011 708.571C717.08 711.392 712.02 715.216 706.13 718.081C683.619 728.994 643.927 724.132 625.486 709.112C618.756 703.638 613.406 696.887 605.025 693.072C592.055 687.163 575.734 689.869 561.243 692.921C546.763 695.964 530.732 699.096 517.312 693.844C514.931 692.912 512.561 691.582 511.741 689.594C511.111 688.051 511.521 686.374 512.051 684.812C514.731 676.828 533.402 663.813 529.752 656.804C526.722 651.002 516.702 650.408 508.711 650.754C478.22 652.085 459.039 655.341 428.548 656.671C405.447 657.674 373.915 666.679 353.204 655.766C343.964 650.905 339.124 639.868 346.364 633.25C354.414 625.904 370.065 623.349 374.565 614.336C375.125 613.209 375.375 611.887 374.605 610.849C373.545 609.412 371.115 609.119 369.015 608.977C361.005 608.454 353.584 608.924 345.864 606.768C344.954 606.52 344.024 606.236 343.274 605.695C341.094 604.107 342.754 603.219 343.194 601.525C343.514 600.309 342.714 599.032 341.564 598.313C340.414 597.586 338.984 597.32 337.594 597.151C331.103 596.335 324.513 597.151 318.033 597.985C311.142 598.881 304.262 599.786 297.382 600.726C281.501 602.882 265.93 604.399 249.85 604.728C240.559 604.923 221.969 605.632 218.388 595.466C212.748 579.443 257.39 571.654 249.39 556.261C246.62 550.912 238.499 548.836 231.319 547.505C203.838 542.404 175.877 538.846 147.745 536.832C107.484 533.958 67.8318 534.898 28 538.021L34.1803 528.529C100.313 522.318 167.476 517.936 233.029 527.854C247.46 530.037 262.83 533.461 272.301 543.362C281.771 553.263 280.881 571.521 267.371 576.516C258.11 579.931 242.939 579.204 242.839 588.102C242.769 595.102 251.79 596.876 258.09 597.089C267.981 597.426 278.041 597.462 287.971 597.142C302.922 596.654 317.843 595.199 332.563 592.786C339.394 591.668 346.224 590.418 352.864 588.634C359.275 586.922 366.705 584.704 373.205 587.304C374.085 587.658 374.975 588.164 375.315 588.971C375.795 590.151 374.935 591.402 374.055 592.378C371.495 595.226 367.975 596.486 365.345 598.881C362.025 601.898 364.815 605.295 368.775 606.413C378.415 609.128 412.267 607.939 397.956 623.908C392.006 630.544 377.775 630.136 375.165 639.434C373.555 645.413 379.956 651.171 386.766 652.307C393.586 653.442 400.486 651.357 407.107 649.53C447.648 638.351 494.331 632.931 536.162 640.649C539.333 641.235 542.593 641.882 545.243 643.541C547.893 645.191 549.803 648.11 549.093 650.914C546.493 661.045 525.982 662.802 546.233 670.893C566.034 678.806 583.404 673.528 603.475 670.99C609.696 670.201 614.556 670.041 618.976 674.539C624.236 679.88 618.686 689.497 627.706 690.916C630.547 691.369 633.417 691.653 636.297 691.777C641.117 691.981 646.687 692.007 649.707 695.343C650.617 696.346 651.177 697.552 651.968 698.635C654.998 702.769 661.068 704.472 666.608 704.1C687.909 702.653 701.72 687.731 722.741 683.961C735.531 681.663 739.441 682.941 744.112 671.381C750.612 655.27 769.713 645.573 788.664 642.379C807.614 639.176 827.115 641.093 846.396 640.667C877.237 639.993 910.429 634.545 939.68 625.958C943.43 624.857 947.261 623.633 950.241 621.335C953.221 619.038 955.231 615.409 954.281 612.011C953.441 608.959 950.401 606.422 950.611 603.29C950.941 598.189 958.671 596.858 964.431 597.018C979.742 597.444 995.483 598.872 1010.71 597.719C1037.52 595.687 1065.48 594.49 1091.34 587.88C1097.78 586.23 1105.23 583.249 1106.12 577.35C1107.32 569.489 1095.66 563.314 1097.3 555.525C1098.31 550.69 1103.98 547.931 1109.11 546.086C1163.67 526.479 1226.47 539.485 1282.85 545.411C1318.5 549.164 1355.29 551.879 1391 549.457Z" fill="#FAF7F0"/>
<path opacity="0.3" d="M1145 529.777C1135.18 531.845 1124.45 532.704 1113.93 533.216C1087.91 534.479 1061.62 533.922 1035.84 531.556C1023.67 530.442 1009.04 529.381 1000.97 534.648C997.73 536.77 996.266 539.561 993.79 541.989C984.787 550.815 964.349 553.412 946.33 553.284C928.317 553.156 909.71 551.245 892.659 554.547C889.718 555.117 886.654 555.943 885.177 557.491C882.178 560.653 887.409 564.646 885.429 568.056C883.378 571.581 875.336 572.37 868.783 572.551C853.053 572.551 837.201 573.48 821.484 573.881C806.831 574.257 793.41 572.84 778.835 575.218C774.611 575.908 770.322 576.841 767.284 578.641C764.247 580.441 762.808 583.306 764.937 585.482C767.078 587.666 772.45 589.106 771.902 591.588C771.708 592.471 770.728 593.231 769.664 593.887C756.308 602.099 731.091 598.04 714.213 603.82C710.389 605.133 707.125 606.912 703.327 608.246C688.809 613.324 663.212 611.061 651.319 604.072C646.979 601.525 643.529 598.383 638.124 596.608C629.759 593.858 619.234 595.117 609.889 596.538C600.551 597.954 590.212 599.411 581.557 596.967C580.023 596.533 578.494 595.914 577.965 594.989C577.559 594.271 577.823 593.491 578.165 592.764C579.894 589.049 591.934 582.992 589.58 579.731C587.626 577.031 581.164 576.754 576.011 576.915C556.347 577.534 543.977 579.05 524.314 579.669C509.416 580.135 489.081 584.326 475.725 579.248C469.765 576.985 466.644 571.85 471.313 568.77C476.505 565.352 486.598 564.163 489.5 559.968C489.861 559.444 490.023 558.829 489.526 558.346C488.842 557.677 487.275 557.541 485.921 557.475C480.755 557.231 475.97 557.45 470.991 556.447C470.404 556.331 469.804 556.199 469.32 555.947C467.914 555.208 468.985 554.795 469.269 554.007C469.475 553.441 468.959 552.847 468.218 552.512C467.476 552.174 466.554 552.05 465.657 551.971C461.472 551.592 457.222 551.971 453.042 552.359C448.599 552.776 444.162 553.197 439.725 553.635C429.483 554.638 419.442 555.344 409.071 555.497C403.08 555.588 391.09 555.918 388.782 551.187C385.144 543.731 413.934 540.106 408.774 532.943C406.988 530.454 401.751 529.488 397.121 528.869C379.398 526.495 361.366 524.839 343.224 523.902C317.259 522.565 291.688 523.002 266 524.455L269.986 520.038C312.635 517.148 355.948 515.109 398.223 519.724C407.53 520.74 417.442 522.333 423.55 526.941C429.657 531.548 429.083 540.044 420.37 542.369C414.398 543.958 404.615 543.62 404.55 547.76C404.505 551.018 410.322 551.843 414.385 551.942C420.764 552.099 427.252 552.116 433.656 551.967C443.298 551.74 452.92 551.063 462.413 549.94C466.818 549.42 471.223 548.838 475.505 548.008C479.639 547.211 484.431 546.179 488.623 547.389C489.191 547.554 489.765 547.789 489.984 548.165C490.294 548.714 489.739 549.296 489.171 549.75C487.52 551.075 485.25 551.662 483.554 552.776C481.413 554.18 483.212 555.761 485.766 556.281C491.983 557.545 513.814 556.991 504.585 564.423C500.748 567.511 491.57 567.321 489.887 571.647C488.849 574.43 492.976 577.109 497.368 577.638C501.767 578.166 506.217 577.196 510.486 576.346C536.632 571.144 566.737 568.621 593.714 572.213C595.759 572.485 597.861 572.787 599.57 573.559C601.279 574.327 602.511 575.685 602.053 576.99C600.377 581.704 587.149 582.522 600.209 586.287C612.978 589.969 624.181 587.513 637.125 586.332C641.136 585.965 644.27 585.89 647.121 587.984C650.513 590.469 646.934 594.944 652.751 595.605C654.583 595.815 656.434 595.947 658.291 596.005C661.4 596.1 664.992 596.112 666.94 597.665C667.527 598.131 667.888 598.693 668.397 599.196C670.351 601.12 674.266 601.913 677.839 601.739C691.576 601.066 700.482 594.122 714.039 592.368C722.288 591.299 724.809 591.893 727.821 586.514C732.013 579.017 744.331 574.504 756.553 573.018C768.774 571.528 781.35 572.419 793.784 572.221C813.674 571.907 835.079 569.373 853.943 565.376C856.362 564.864 858.832 564.295 860.754 563.225C862.676 562.156 863.972 560.468 863.359 558.886C862.818 557.466 860.857 556.286 860.992 554.828C861.205 552.454 866.191 551.835 869.905 551.909C879.779 552.108 889.93 552.772 899.753 552.236C917.043 551.29 935.069 550.733 951.747 547.657C955.9 546.889 960.705 545.502 961.279 542.757C962.053 539.099 954.533 536.226 955.591 532.601C956.242 530.351 959.899 529.067 963.207 528.208C998.395 519.084 1038.9 525.137 1075.25 527.894C1098.24 529.641 1121.97 530.904 1145 529.777Z" fill="#FAF7F0"/>
<ellipse cx="1077" cy="775" rx="13" ry="5" fill="#FFCBA3"/>
<ellipse rx="71.394" ry="33.75" transform="matrix(-1 0 0 1 1490.48 173.75)" fill="white"/>
<ellipse rx="43.3786" ry="20.9155" transform="matrix(-1 0 0 1 1403.72 178.028)" fill="white"/>
<ellipse rx="20.81" ry="4.77922" transform="matrix(-1 0 0 1 1413.52 187.035)" fill="white"/>
<ellipse rx="36.5331" ry="7.54054" transform="matrix(-1 0 0 1 1369.59 185.973)" fill="white"/>
<ellipse rx="22.1973" ry="4.67301" transform="matrix(-1 0 0 1 1325.2 186.929)" fill="white"/>
<g clip-path="url(#clip1_334_1572)">
<path d="M1136.48 449.199C1131.22 450.677 1127.6 454.997 1127.17 459.725C1130.01 463.531 1135.34 465.336 1140.61 463.856C1145.87 462.376 1149.49 458.057 1149.93 453.328C1147.09 449.522 1141.75 447.719 1136.48 449.199Z" fill="#00D5EE"/>
<path d="M1123.37 456.008C1121.37 455.205 1119.52 455.564 1118.67 456.768C1119.07 458.469 1120.6 460.191 1122.6 460.994C1124.6 461.797 1126.45 461.437 1127.3 460.235C1126.9 458.534 1125.36 456.812 1123.36 456.009L1123.37 456.008Z" fill="#03A7CB"/>
<path d="M1126.03 465.483C1124.74 467.209 1122.97 467.868 1121.63 467.282C1121.08 465.622 1121.5 463.351 1122.78 461.625C1124.07 459.899 1125.84 459.24 1127.19 459.826C1127.73 461.486 1127.32 463.757 1126.03 465.483Z" fill="#03A7CB"/>
<path d="M1143.99 453.243C1144.52 453.093 1144.84 452.578 1144.71 452.094C1144.57 451.609 1144.03 451.338 1143.49 451.488C1142.96 451.638 1142.63 452.153 1142.77 452.638C1142.91 453.123 1143.45 453.394 1143.99 453.243Z" fill="#033563"/>
</g>
<path opacity="0.4" d="M1026.74 557.573C1026.77 557.298 1026.57 557.05 1026.3 557.017C1026.03 556.984 1025.78 557.18 1025.74 557.454L1026.74 557.573ZM1026.7 551.449C1026.65 551.72 1026.82 551.983 1027.09 552.037C1027.36 552.09 1027.63 551.914 1027.68 551.643L1026.7 551.449ZM1028.32 548.702C1028.38 548.434 1028.21 548.165 1027.94 548.102C1027.67 548.039 1027.41 548.206 1027.34 548.475L1028.32 548.702ZM1028.91 542.621C1028.83 542.886 1028.98 543.164 1029.25 543.244C1029.51 543.324 1029.79 543.174 1029.87 542.91L1028.91 542.621ZM1030.78 540.047C1030.87 539.785 1030.72 539.502 1030.46 539.414C1030.2 539.327 1029.92 539.468 1029.83 539.73L1030.78 540.047ZM1031.91 534.023C1031.81 534.28 1031.94 534.571 1032.2 534.672C1032.45 534.774 1032.74 534.649 1032.84 534.392L1031.91 534.023ZM1033.99 531.62C1034.1 531.366 1033.98 531.072 1033.72 530.964C1033.47 530.855 1033.18 530.973 1033.07 531.227L1033.99 531.62ZM1035.6 525.713C1035.48 525.961 1035.58 526.261 1035.83 526.382C1036.07 526.504 1036.37 526.401 1036.5 526.153L1035.6 525.713ZM1037.85 523.468C1037.98 523.223 1037.89 522.921 1037.64 522.793C1037.4 522.666 1037.09 522.761 1036.97 523.006L1037.85 523.468ZM1039.9 517.704C1039.76 517.942 1039.84 518.248 1040.08 518.388C1040.31 518.527 1040.62 518.447 1040.76 518.209L1039.9 517.704ZM1042.31 515.626C1042.46 515.392 1042.39 515.083 1042.15 514.938C1041.92 514.793 1041.61 514.866 1041.46 515.101L1042.31 515.626ZM1044.77 510.028C1044.61 510.256 1044.67 510.567 1044.9 510.724C1045.13 510.88 1045.44 510.822 1045.6 510.594L1044.77 510.028ZM1047.33 508.132C1047.49 507.908 1047.44 507.596 1047.22 507.434C1046.99 507.272 1046.68 507.322 1046.52 507.546L1047.33 508.132ZM1050.19 502.724C1050.01 502.94 1050.05 503.254 1050.26 503.427C1050.48 503.599 1050.79 503.564 1050.97 503.348L1050.19 502.724ZM1052.88 501.018C1053.05 500.806 1053.03 500.491 1052.81 500.313C1052.6 500.136 1052.29 500.163 1052.11 500.375L1052.88 501.018ZM1056.12 495.831C1055.93 496.033 1055.94 496.35 1056.14 496.537C1056.35 496.725 1056.66 496.713 1056.85 496.51L1056.12 495.831ZM1058.92 494.326C1059.11 494.128 1059.11 493.811 1058.91 493.619C1058.71 493.426 1058.4 493.431 1058.21 493.629L1058.92 494.326ZM1062.54 489.392C1062.33 489.58 1062.32 489.897 1062.51 490.099C1062.7 490.301 1063.02 490.313 1063.22 490.124L1062.54 489.392ZM1065.45 488.103C1065.65 487.92 1065.67 487.604 1065.49 487.397C1065.31 487.191 1064.99 487.171 1064.78 487.354L1065.45 488.103ZM1069.43 483.455C1069.21 483.627 1069.18 483.942 1069.35 484.158C1069.52 484.374 1069.83 484.409 1070.05 484.237L1069.43 483.455ZM1072.42 482.395C1072.64 482.228 1072.69 481.915 1072.52 481.694C1072.36 481.474 1072.04 481.43 1071.82 481.597L1072.42 482.395ZM1076.76 478.067C1076.53 478.221 1076.47 478.532 1076.62 478.761C1076.78 478.99 1077.09 479.05 1077.32 478.895L1076.76 478.067ZM1079.82 477.247C1080.06 477.099 1080.12 476.79 1079.98 476.557C1079.83 476.324 1079.52 476.256 1079.29 476.405L1079.82 477.247ZM1084.48 473.278C1084.24 473.414 1084.16 473.719 1084.3 473.959C1084.43 474.2 1084.74 474.284 1084.98 474.148L1084.48 473.278ZM1087.61 472.706C1087.85 472.576 1087.95 472.274 1087.82 472.03C1087.69 471.786 1087.39 471.693 1087.14 471.822L1087.61 472.706ZM1092.57 469.127C1092.32 469.243 1092.21 469.54 1092.33 469.791C1092.45 470.041 1092.74 470.15 1092.99 470.034L1092.57 469.127ZM1095.74 468.808C1095.99 468.699 1096.11 468.405 1096 468.152C1095.89 467.898 1095.6 467.781 1095.35 467.89L1095.74 468.808ZM1100.98 465.647C1100.72 465.742 1100.58 466.03 1100.68 466.289C1100.77 466.548 1101.06 466.681 1101.32 466.586L1100.98 465.647ZM1104.16 465.587C1104.42 465.499 1104.57 465.215 1104.48 464.953C1104.39 464.692 1104.11 464.551 1103.84 464.639L1104.16 465.587ZM1109.64 462.862C1109.38 462.936 1109.22 463.211 1109.29 463.477C1109.37 463.743 1109.64 463.899 1109.91 463.826L1109.64 462.862ZM1112.81 463.064C1113.08 462.997 1113.24 462.726 1113.17 462.458C1113.11 462.19 1112.84 462.026 1112.57 462.093L1112.81 463.064ZM1118.49 460.787C1118.22 460.839 1118.04 461.102 1118.09 461.373C1118.15 461.644 1118.41 461.821 1118.68 461.769L1118.49 460.787ZM1026.58 559.049C1026.62 558.56 1026.68 558.068 1026.74 557.573L1025.74 557.454C1025.68 557.957 1025.63 558.456 1025.58 558.951L1026.58 559.049ZM1027.68 551.643C1027.87 550.672 1028.08 549.691 1028.32 548.702L1027.34 548.475C1027.11 549.475 1026.89 550.466 1026.7 551.449L1027.68 551.643ZM1029.87 542.91C1030.15 541.961 1030.46 541.006 1030.78 540.047L1029.83 539.73C1029.51 540.699 1029.2 541.663 1028.91 542.621L1029.87 542.91ZM1032.84 534.392C1033.21 533.47 1033.59 532.546 1033.99 531.62L1033.07 531.227C1032.67 532.161 1032.28 533.093 1031.91 534.023L1032.84 534.392ZM1036.5 526.153C1036.93 525.258 1037.39 524.363 1037.85 523.468L1036.97 523.006C1036.5 523.908 1036.04 524.811 1035.6 525.713L1036.5 526.153ZM1040.76 518.209C1041.27 517.346 1041.78 516.485 1042.31 515.626L1041.46 515.101C1040.93 515.966 1040.41 516.834 1039.9 517.704L1040.76 518.209ZM1045.6 510.594C1046.16 509.77 1046.74 508.949 1047.33 508.132L1046.52 507.546C1045.92 508.37 1045.34 509.197 1044.77 510.028L1045.6 510.594ZM1050.97 503.348C1051.59 502.566 1052.23 501.789 1052.88 501.018L1052.11 500.375C1051.46 501.153 1050.82 501.936 1050.19 502.724L1050.97 503.348ZM1056.85 496.51C1057.53 495.776 1058.22 495.048 1058.92 494.326L1058.21 493.629C1057.5 494.356 1056.8 495.091 1056.12 495.831L1056.85 496.51ZM1063.22 490.124C1063.95 489.443 1064.69 488.769 1065.45 488.103L1064.78 487.354C1064.02 488.026 1063.28 488.706 1062.54 489.392L1063.22 490.124ZM1070.05 484.237C1070.83 483.615 1071.62 483 1072.42 482.395L1071.82 481.597C1071.01 482.208 1070.21 482.827 1069.43 483.455L1070.05 484.237ZM1077.32 478.895C1078.14 478.337 1078.98 477.787 1079.82 477.247L1079.29 476.405C1078.43 476.949 1077.59 477.503 1076.76 478.067L1077.32 478.895ZM1084.98 474.148C1085.85 473.657 1086.72 473.176 1087.61 472.706L1087.14 471.822C1086.25 472.297 1085.36 472.782 1084.48 473.278L1084.98 474.148ZM1092.99 470.034C1093.9 469.615 1094.82 469.206 1095.74 468.808L1095.35 467.89C1094.41 468.291 1093.49 468.704 1092.57 469.127L1092.99 470.034ZM1101.32 466.586C1102.26 466.241 1103.21 465.908 1104.16 465.587L1103.84 464.639C1102.88 464.963 1101.92 465.3 1100.98 465.647L1101.32 466.586ZM1109.91 463.826C1110.87 463.56 1111.83 463.306 1112.81 463.064L1112.57 462.093C1111.58 462.337 1110.61 462.594 1109.64 462.862L1109.91 463.826ZM1118.68 461.769C1119.17 461.674 1119.67 461.581 1120.17 461.492L1119.99 460.508C1119.49 460.598 1118.99 460.691 1118.49 460.787L1118.68 461.769Z" fill="#05A1D4"/>
<g opacity="0.3">
<path d="M1038.5 557.497C1038.5 557.497 1038.5 557.497 1038.5 557.498L1038.5 557.497ZM1038.39 557.361C1038.48 557.441 1038.5 557.488 1038.5 557.5C1038.5 557.512 1038.48 557.559 1038.39 557.639C1038.28 557.75 1038.08 557.88 1037.77 558.018C1037.17 558.293 1036.26 558.554 1035.1 558.777C1032.78 559.222 1029.57 559.5 1026 559.5C1022.43 559.5 1019.22 559.222 1016.9 558.777C1015.74 558.554 1014.83 558.293 1014.23 558.018C1013.92 557.88 1013.72 557.75 1013.61 557.639C1013.52 557.559 1013.5 557.512 1013.5 557.5C1013.5 557.488 1013.52 557.441 1013.61 557.361C1013.72 557.25 1013.92 557.12 1014.23 556.982C1014.83 556.707 1015.74 556.446 1016.9 556.223C1019.22 555.778 1022.43 555.5 1026 555.5C1029.57 555.5 1032.78 555.778 1035.1 556.223C1036.26 556.446 1037.17 556.707 1037.77 556.982C1038.08 557.12 1038.28 557.25 1038.39 557.361ZM1013.5 557.497C1013.5 557.497 1013.5 557.497 1013.5 557.498L1013.5 557.497ZM1013.5 557.503C1013.5 557.503 1013.5 557.503 1013.5 557.502L1013.5 557.503ZM1038.5 557.502C1038.5 557.503 1038.5 557.503 1038.5 557.503L1038.5 557.502Z" stroke="white"/>
<path d="M1052.5 558.5C1052.5 558.701 1052.4 558.952 1052.1 559.254C1051.79 559.557 1051.32 559.874 1050.66 560.19C1049.35 560.822 1047.42 561.405 1044.99 561.899C1040.15 562.886 1033.43 563.5 1026 563.5C1018.57 563.5 1011.85 562.886 1007.01 561.899C1004.58 561.405 1002.65 560.822 1001.34 560.19C1000.68 559.874 1000.21 559.557 999.901 559.254C999.598 558.952 999.5 558.701 999.5 558.5C999.5 558.299 999.598 558.048 999.901 557.746C1000.21 557.443 1000.68 557.126 1001.34 556.81C1002.65 556.178 1004.58 555.595 1007.01 555.101C1011.85 554.114 1018.57 553.5 1026 553.5C1033.43 553.5 1040.15 554.114 1044.99 555.101C1047.42 555.595 1049.35 556.178 1050.66 556.81C1051.32 557.126 1051.79 557.443 1052.1 557.746C1052.4 558.048 1052.5 558.299 1052.5 558.5Z" stroke="white"/>
</g>
<path d="M316 511H346L343 517H321.143L316 511Z" fill="#009ADC"/>
<path d="M333 509.444V495L325 510L333 509.444Z" fill="#009ADC"/>
<path opacity="0.3" d="M333 509.593V499L339 510L333 509.593Z" fill="#009ADC"/>
<path d="M1255.56 489.595C1251.2 486.308 1247.15 488.461 1246.11 489.115C1246.01 489.178 1245.89 489.085 1245.92 488.973C1246.35 487.589 1248.69 484.242 1249.37 483.293C1249.43 483.201 1249.35 483.076 1249.23 483.101C1244.78 484.046 1243.18 487.91 1242.88 488.76C1242.85 488.841 1242.75 488.865 1242.68 488.812C1238.36 485.42 1234.58 486.425 1233.5 486.825C1233.39 486.866 1233.39 487.021 1233.5 487.059C1236.91 488.239 1238.95 489.755 1239.6 490.286C1239.68 490.358 1239.64 490.496 1239.53 490.505C1233.76 491.037 1232.25 493.973 1231.92 494.892C1231.88 494.995 1231.99 495.092 1232.09 495.047C1234.52 493.958 1238.45 493.439 1239.65 493.301C1239.77 493.288 1239.84 493.429 1239.76 493.512C1236.93 496.335 1237.11 498.918 1237.57 501.129C1237.61 501.332 1237.89 501.365 1237.98 501.179C1239.44 498.115 1241.57 495.584 1242.73 494.337C1243.53 499.297 1248.11 507.635 1250.2 509.92L1252.18 508.138C1247.46 502.97 1245.51 496.958 1244.74 493.772C1248.14 494.723 1251.71 497.039 1252.76 497.75C1252.86 497.817 1252.99 497.72 1252.95 497.605C1251.32 492.786 1248.21 491.851 1246.82 491.679C1246.69 491.661 1246.67 491.473 1246.8 491.435C1250.26 490.403 1254.35 489.936 1255.5 489.818C1255.61 489.806 1255.65 489.661 1255.56 489.593L1255.56 489.595Z" fill="#3FD4F5"/>
<path d="M251.459 484.595C255.815 481.308 259.872 483.461 260.907 484.115C261.005 484.178 261.129 484.085 261.095 483.973C260.669 482.589 258.328 479.242 257.653 478.293C257.585 478.201 257.671 478.076 257.785 478.101C262.239 479.046 263.839 482.91 264.142 483.76C264.17 483.841 264.271 483.865 264.337 483.812C268.664 480.42 272.443 481.425 273.522 481.825C273.633 481.866 273.628 482.021 273.517 482.059C270.11 483.239 268.073 484.755 267.423 485.286C267.335 485.358 267.381 485.496 267.493 485.505C273.255 486.037 274.765 488.973 275.099 489.892C275.137 489.995 275.03 490.092 274.929 490.047C272.497 488.958 268.568 488.439 267.366 488.301C267.248 488.288 267.181 488.429 267.263 488.512C270.086 491.335 269.911 493.918 269.448 496.129C269.406 496.332 269.13 496.365 269.041 496.179C267.58 493.115 265.449 490.584 264.294 489.337C263.486 494.297 258.907 502.635 256.822 504.92L254.838 503.138C259.556 497.97 261.507 491.958 262.283 488.772C258.878 489.723 255.307 492.039 254.258 492.75C254.158 492.817 254.029 492.72 254.069 492.605C255.699 487.786 258.811 486.851 260.195 486.679C260.33 486.661 260.345 486.473 260.215 486.435C256.757 485.403 252.665 484.936 251.521 484.818C251.407 484.806 251.369 484.661 251.461 484.593L251.459 484.595Z" fill="#3FD4F5"/>
<path d="M1254.53 485.813C1259.59 481.999 1264.3 484.498 1265.5 485.256C1265.61 485.329 1265.75 485.221 1265.71 485.091C1265.22 483.485 1262.5 479.601 1261.72 478.501C1261.64 478.394 1261.74 478.248 1261.87 478.278C1267.04 479.374 1268.9 483.857 1269.25 484.844C1269.28 484.938 1269.4 484.966 1269.48 484.905C1274.5 480.969 1278.88 482.135 1280.13 482.599C1280.26 482.647 1280.26 482.826 1280.13 482.871C1276.17 484.24 1273.81 485.998 1273.06 486.615C1272.95 486.699 1273.01 486.858 1273.14 486.869C1279.82 487.486 1281.58 490.893 1281.96 491.959C1282.01 492.079 1281.88 492.192 1281.77 492.139C1278.94 490.875 1274.39 490.274 1272.99 490.113C1272.85 490.098 1272.78 490.262 1272.87 490.358C1276.15 493.634 1275.94 496.631 1275.41 499.197C1275.36 499.432 1275.04 499.471 1274.93 499.255C1273.24 495.699 1270.77 492.763 1269.43 491.316C1268.49 497.071 1263.18 506.746 1260.76 509.397L1258.45 507.33C1263.93 501.333 1266.19 494.356 1267.09 490.66C1263.14 491.764 1259 494.451 1257.78 495.276C1257.66 495.354 1257.52 495.241 1257.56 495.108C1259.45 489.516 1263.06 488.431 1264.67 488.231C1264.83 488.211 1264.84 487.992 1264.69 487.948C1260.68 486.751 1255.93 486.208 1254.6 486.071C1254.47 486.058 1254.43 485.89 1254.53 485.811L1254.53 485.813Z" fill="#3FD4F5"/>
</g>
<defs>
<linearGradient id="paint0_linear_334_1572" x1="725" y1="0" x2="725" y2="517" gradientUnits="userSpaceOnUse">
<stop stop-color="#B1F2FF"/>
<stop offset="0.547389" stop-color="#D1F3FA"/>
<stop offset="0.989583" stop-color="#ECFCFF"/>
</linearGradient>
<linearGradient id="paint1_linear_334_1572" x1="789.273" y1="517" x2="789.273" y2="820.916" gradientUnits="userSpaceOnUse">
<stop stop-color="#83EDFF"/>
<stop offset="1" stop-color="#2CDDFB" stop-opacity="0"/>
</linearGradient>
<clipPath id="clip0_334_1572">
<rect width="1440" height="859" fill="white"/>
</clipPath>
<clipPath id="clip1_334_1572">
<rect width="31.0224" height="15.2303" fill="white" transform="translate(1118 454.393) rotate(-15.6963)"/>
</clipPath>
</defs>
</svg>
